/* XPM */
static char *gold_coins_231741177214[] = {
/* columns rows colors chars-per-pixel */
"35 35 90 1 ",
"  c #D99A32",
". c #DA9E3A",
"X c #DEA133",
"o c #DEA238",
"O c #EBB22E",
"+ c #E2A736",
"@ c #E5AE3D",
"# c #ECB736",
"$ c #EFBA34",
"% c #EAB53C",
"& c #EFBD39",
"* c #F1BE36",
"= c #F2C037",
"- c #D79F42",
"; c #D8A347",
": c #DBAA4F",
"> c #E3AD47",
", c #E7B141",
"< c #EDBC47",
"1 c #E8B749",
"2 c #EABD4F",
"3 c #E2B355",
"4 c #E9BC51",
"5 c #E2BA61",
"6 c #EFC043",
"7 c #F5CA42",
"8 c #F2C749",
"9 c #F4CB4C",
"0 c #F9CE48",
"q c #F9D147",
"w c #FDD34D",
"e c #EDC354",
"r c #EDC55A",
"t c #F2CA54",
"y c #F8CE55",
"u c #F4CE5A",
"i c #F6D152",
"p c #FED653",
"a c #FDD955",
"s c #F6D35B",
"d c #FAD65A",
"f c #FEDC5C",
"g c #FDE15F",
"h c #ECCA6E",
"j c #F0CE64",
"k c #F2CF6C",
"l c #F4D363",
"z c #F9D663",
"x c #F7DB66",
"c c #FDDD63",
"v c #F3D46B",
"b c #F7DD6D",
"n c #F9DC6B",
"m c #E9C971",
"M c #F2D576",
"N c #F6DD75",
"B c #F9DE74",
"V c #F6DC7B",
"C c #FEE164",
"Z c #FEE46C",
"A c #FFE86E",
"S c #FDE574",
"D c #FEEA75",
"F c #F7E17C",
"G c #FAE57B",
"H c #FEEB7B",
"J c #F7DF81",
"K c #F9E483",
"L c #FEED83",
"P c #F5E28E",
"I c #F8E288",
"U c #FCED8B",
"Y c #FFF185",
"T c #FFF28C",
"R c #F8E591",
"E c #FCEE93",
"W c #FAED9B",
"Q c #FFF493",
"! c #FFF897",
"~ c #FEF59A",
"^ c #FFF89D",
"/ c #FAEFA3",
"( c #FEF6A4",
") c #FFFAA3",
"_ c #FDF6AC",
"` c #FFFAAA",
"' c #FDF7B1",
"] c #FFFBB5",
"[ c #FFFDB8",
"{ c None",
/* pixels */
"{{{{{{{{{{{{{{{{{{{{{{{{{{{{{{{{{{{",
"{{{{{{{{{{{{{{{{{{{{{{{{{{{{{{{{{{{",
"{{{{{{{{{{{{{{GYLLHHAC{{{{{{{{{{{{{",
"{{{{{{{{{{{FQ)`^~!TYHDZg{{{{{{{{{{{",
"{{{{{{{{{G!)`WMre4etlCZCfa{{{{{{{{{",
"{{{{{{{{K))P3o,evNFVle9dapp{{{{{{{{",
"{{{{{{{U))5 <cHTYDQ)!Hbiqwac{{{{{{{",
"{{{{{{U`E;odZgD!!LQ^YZHHfwfCA{{{{{{",
"{{{{{K)W;%CZHHT)^GTQYDDSZdaZDD{{{{{",
"{{{{b^):@gCDTQ)QLZLTLDDcfawcHUH{{{{",
"{{{{U`mXCZSYQ^YxFGGQTxCfqwacDQU{{{{",
"{{{{^WodZHT!^TZvQKSHTuapwafcSQ^G{{{",
"{{{U`h@ZZT!^)YFFQKnDHuwwafcZDT`E{{{",
"{{{Q^>sSHQ))~TQFYFcCnuwpfZCSLU`_{{{",
"{{{^U@GT!))^!T^YHbdfa0accDLU~T`]N{{",
"{{G!V1YT^)^~QYTTHzppwafnSLEQQ~`_N{{",
"{{H!vrDH)^!TTLDSAcapaccSLU~LH~~(N{{",
"{{HQljUQ^!!THDZcfppfcnDLE~(((~QQb{{",
"{{DUlv))QQYLDACfapfSDSLU~(]]`QTTz{{",
"{{DHxj~QTTYDACappyiHQKL~(]](TYYHt{{",
"{{{HZeHZYYDAccpwfzzD(WV_'])AZHHZ6{{",
"{{{DZ8GDHDZCcnwanVnL~UV][`QACHZf{{{",
"{{{ZCpxYHZCfanpfDIVELnP[`QHZCDgq{{{",
"{{{CCa9ZACawaGGZLRLUck'_QHCgACa#{{{",
"{{{{gpqaffwpaZEETUKZM/)!HgagAg={{{{",
"{{{{gppipwwacZGLLxJ/')!HCiiZg=${{{{",
"{{{{{aafdpagcDLQUl/[)!DCgiAgq={{{{{",
"{{{{{{fZZCfcSLUL~`_QUHgaaZgq={{{{{{",
"{{{{{{{ZDLDZHQEZW[~ZACgZAfq={{{{{{{",
"{{{{{{{{SUEQLLQQ`(TDDDDCaq={{{{{{{{",
"{{{{{{{{{SE(``)~QTTYHAga7O{{{{{{{{{",
"{{{{{{{{{{{K/[]`^QYDZgq={{{{{{{{{{{",
"{{{{{{{{{{{{{MJKGSbs8#{{{{{{{{{{{{{",
"{{{{{{{{{{{{{{{{{{{{{{{{{{{{{{{{{{{",
"{{{{{{{{{{{{{{{{{{{{{{{{{{{{{{{{{{{"
};
