/* XPM */
static char *result[] = {
/* columns rows colors chars-per-pixel */
"50 38 2 1 ",
"  c #FF0646",
". c None",
/* pixels */
"..................................................",
"......................      ......................",
"..................             ...................",
"................                 .................",
"...............                    ...............",
"..............                      ..............",
".............                        .............",
"............                          ............",
"...........                            ...........",
"..........                              ..........",
"..........                              ..........",
".........                                .........",
".........                                .........",
"........                                 .........",
"........                                  ........",
"........                                  ........",
"........                                  ........",
"........                                  ........",
"........                                  ........",
"........                                  ........",
"........                                  ........",
"........                                  ........",
"........                                  ........",
"........                                 .........",
".........                                .........",
".........                                .........",
"..........                              ..........",
"..........                              ..........",
"...........                            ...........",
"...........                           ............",
"............                          ............",
".............                        .............",
"..............                     ...............",
"................                  ................",
"..................              ..................",
"....................         .....................",
"..................................................",
".................................................."
};
