/* XPM */
static char *door__1_1741178182[] = {
/* columns rows colors chars-per-pixel */
"50 50 200 2 ",
"   c #060404",
".  c #0A0604",
"X  c #070800",
"o  c #0C0B05",
"O  c #090708",
"+  c #0C0B0B",
"@  c #070B0C",
"#  c #120C05",
"$  c #190F05",
"%  c #120E0B",
"&  c #0E130F",
"*  c #1A1006",
"=  c #13110D",
"-  c #1A140B",
";  c #1C190E",
":  c #0F0D11",
">  c #110F11",
",  c #180F10",
"<  c #0E1111",
"1  c #141312",
"2  c #191513",
"3  c #171915",
"4  c #1C1B14",
"5  c #1A1619",
"6  c #161A1A",
"7  c #1D1B19",
"8  c #16151A",
"9  c #20160C",
"0  c #241B0C",
"q  c #321F0E",
"w  c #211614",
"e  c #231C14",
"r  c #2B1C16",
"t  c #221D1B",
"y  c #17271D",
"u  c #1E221C",
"i  c #1D291B",
"p  c #1C2216",
"a  c #29220F",
"s  c #262116",
"d  c #2B2214",
"f  c #24211C",
"g  c #2B251C",
"h  c #24291C",
"j  c #2C291E",
"k  c #332717",
"l  c #32251B",
"z  c #3A271B",
"x  c #332B1C",
"c  c #3B2C1C",
"v  c #3A2514",
"b  c #231F20",
"n  c #182720",
"m  c #1C2C23",
"M  c #1D3327",
"N  c #252221",
"B  c #2B2521",
"V  c #262B23",
"C  c #2C2A23",
"Z  c #2D2C2A",
"A  c #342723",
"S  c #332C23",
"D  c #3B2D24",
"F  c #322E2A",
"G  c #3A2F29",
"H  c #2C3123",
"J  c #233429",
"K  c #2B342D",
"L  c #243427",
"P  c #333126",
"I  c #3C3224",
"U  c #35322A",
"Y  c #3B342B",
"T  c #3C392F",
"R  c #2C3932",
"E  c #3E3731",
"W  c #3C3B32",
"Q  c #353C35",
"!  c #43311D",
"~  c #442C20",
"^  c #402C2B",
"/  c #433225",
"(  c #4A3624",
")  c #423925",
"_  c #493A25",
"`  c #43342B",
"'  c #4A362B",
"]  c #433A2D",
"[  c #4A3B2C",
"{  c #523726",
"}  c #523925",
"|  c #583924",
" . c #533729",
".. c #533C2D",
"X. c #5D3E29",
"o. c #423731",
"O. c #483632",
"+. c #433B33",
"@. c #4B3C33",
"#. c #433E38",
"$. c #4E3A39",
"%. c #513E33",
"&. c #593F32",
"*. c #523F39",
"=. c #2D433C",
"-. c #26443A",
";. c #32453C",
":. c #4B412E",
">. c #54432E",
",. c #5A422E",
"<. c #454035",
"1. c #4C4334",
"2. c #45413A",
"3. c #4B443B",
"4. c #4D493E",
"5. c #544434",
"6. c #5A4534",
"7. c #554934",
"8. c #5B4A33",
"9. c #52433B",
"0. c #5B453A",
"q. c #534B3C",
"w. c #5B4C3C",
"e. c #5D5137",
"r. c #57503E",
"t. c #5C513D",
"y. c #624732",
"u. c #644B36",
"i. c #634D3A",
"p. c #694E3A",
"a. c #62463B",
"s. c #65513B",
"d. c #6B533D",
"f. c #71573E",
"g. c #2A4941",
"h. c #354D46",
"j. c #344F48",
"k. c #365043",
"l. c #335248",
"z. c #3E554D",
"x. c #3D5851",
"c. c #4B4640",
"v. c #4F4A41",
"b. c #4F4E49",
"n. c #534D43",
"m. c #5C4D44",
"M. c #584F48",
"N. c #544F4B",
"B. c #40574D",
"V. c #565145",
"C. c #5C5243",
"Z. c #56524B",
"A. c #5A544B",
"S. c #5E594D",
"D. c #5B5652",
"F. c #5D5A52",
"G. c #5D5C58",
"H. c #624D43",
"J. c #6B4F42",
"K. c #614F4B",
"L. c #655344",
"P. c #6C5244",
"I. c #64564D",
"U. c #695648",
"Y. c #635A4D",
"T. c #6D5A4A",
"R. c #685B42",
"E. c #705642",
"W. c #755B44",
"Q. c #7A5B47",
"!. c #645D53",
"~. c #695E54",
"^. c #655E5A",
"/. c #7E6149",
"(. c #666156",
"). c #6A6357",
"_. c #66615A",
"`. c #6C655C",
"'. c #6D685C",
"]. c #7C6655",
"[. c #71655B",
"{. c #746A5E",
"}. c #6B6661",
"|. c #6D6A64",
" X c #736C63",
".X c #7B6F65",
"XX c #736D69",
"oX c #786F6A",
"OX c #757064",
"+X c #7A7466",
"@X c #75726B",
"#X c #7A736C",
"$X c #767271",
"%X c #7A7572",
"&X c #7E7976",
"*X c #83766D",
"=X c #827B74",
"-X c #887B72",
";X c #8A8076",
":X c #8C867A",
/* pixels */
"1 & 1 & = 1 % 1 1 > + 1 2 > > > > < = & 1 - = = 4 o + o 3 < 6 @ 6 + 1 1 8 < : : : 8 : : = + = = = & ",
"& 1 1 = 1 & & 1 % > 1 8 5 5 2 5 < < & = = ; 4 4 = ; f N 3 & < 6 @ + 1 1 < : 1 8 > > < % % & = = % % ",
"= 1 < < + 1 1 = > 1 2 1 > 1 2 1 3 3 7 4 - o o o # X   & + 3 < 1 5 2 & O : 1 8 : 1 > 1 > = = = = = % ",
"1 = = 1 1 = 1 < 3 5 1 % % , 5 > + + + = = e S +.<.4.W C 4 3 & 6 3 1 & 1 1 8 : : > > > 1 = = & # & % ",
"1 1 1 1 1 1 1 1 1 1 2 1 2 5 5 1 u 3 7 T Z.'.'.`.S.(.(.D.@X|.2.3 = & - 4 6 > > 1 1 > 1 > - % + = % & ",
"1 1 = & 1 1 1 = = 1 2 5 5 2 1 - = S Z.(.b.<.C. XA.`.(.#.Z.G.|.@XW V = + 1 5 2 3 1 1 > 1 + 1 = % % = ",
"& 1 1 1 1 1 1 1 2 - - 5 - % 5 B S.4.<.c.Z.A.V.n.n.n.@.] !.~.N.4._.Z.U 2 % w w = 8 1 1 > 1 = + & 1 + ",
"= 1 1 1 = 1 = 1 2 % 2 5 - 2 F N.2.2.3.b.3.S - # - -   e 3.(.!. Xv. X|.<.4 2 5 % 1 > 1 1 1 = = = & 1 ",
"1 1 1 1 1 2 1 2 4 % 2 % 5 A &XW P #.+.s X X # $ $ $ - * * 0 D ~.'.+XV.OXF.& t 2 2 2 1 2 1 1 & = % < ",
"1 1 1 1 1 1 2 - 5 - 2 f 4 Z.c.+.Y S - . . * 4 e A g g d k S d g r.OX).(.'.W X 7 2 2 1 1 = = = & = % ",
"8 > 1 3 2 2 2 2 e % r = #.Z.#.Y h #   o e e e h j Y <.] o.q.[ / a 1.{.'.+X#X= 4 3 2 1 1 1 & 1 1 > = ",
"1 1 1 3 2 2 ; 2 4 2 4 e XX3.A.g #   X t C g f f B S T S x 1.[ I a a R.+X'.=X#.# 2 2 1 1 1 = 1 1 = 1 ",
"1 5 1 5 2 2 2 2 - t . A.(.A.n.$ o # - u N Z N f P t d s l ] / k :.a T ).n.!.^.% 2 2 1 1 1 1 1 1 = 1 ",
", 2 5 2 2 5 4 w 4 , 2 !.Y M.j # - ; 7 f Z F Z u N ; B Y Y @.] I 1.:.a r.S.q.'.f - 2 2 1 1 1 1 1 + 1 ",
"5 8 2 5 5 2 2 2 r # 2.v.F Y - - 4 t V C Z K Z u C 7 U Y l D I c :.7.c ] {.~.XX#.- 2 1 3 3 1 1 8 1 = ",
"5 2 2 2 5 5 w 4 = e (.(.3.Y $ - f C Z C u u V K R 3 h h C 1.1.c e.r.7.c {.OX#XD.% 1 3 3 5 5 1 > 1 1 ",
"; 4 5 5 5 t 5 t 4 s '.n.n.O.. w t B B E H i M B.x.l.=.y Q T w.[ 8.s.:.c [.'.%X$X> 5 7 5 , 5 , , % = ",
"; ; 4 w 7 5 t 7 ; ; S.<.+.G . w w A C S p i M l.g.l.j.M V j ) c y.s.6./ ).`.&X%X> 5 5 5 2 , , , 1 1 ",
"3 4 5 4 t 7 7 t 4 ; Z.+.+.Y . w 2 G A S p i J ;.-.g.=.n i l c q d.i.>.c 9.n.}.D.1 5 5 5 2 , 2 = > - ",
"; 4 t 5 7 t t 7 ; ; Z.3.v.+.# w r D S P h H L ;.z.h.=.K K ] ' ( s.8.,.' 5.A.oX}.5 5 5 5 2 % 2 - % > ",
"4 4 4 7 t b t t ; 0 V.4.N.+.% 2 l A l Y F S i L R J R K g k v } E.y.8.5.q.L.&XXX4 7 3 5 2 - - 2 1 1 ",
"; p s 7 7 b b t e s V.4.M.o.2 r A A r D I H p h K y Q W q.w.,.p.W.d.6.0.9.M.}.!.t 4 4 2 2 1 & = 1 + ",
"4 e 7 t b b t f s h V.4.M.+.w b A D l D I ] S U K u T U U.].E.u.f.i.>.0.w.!. X(.f 4 3 3 3 = = = = 1 ",
"p 4 p t b b N f e s V.V.A.o., r D ' D ~ / q.q.b.W G V.Y U.].Q.p.d.L.>.5.5.M.Y.Z.f 4 4 3 3 = & ; & = ",
"s p f t t N t N p g A.r.2.2.- B D O.z ' 0.C.] $.c.+.M.9.L.P.*X| P.L.5.[ m. XM.`.h 4 4 4 3 1 = = % 1 ",
"4 f t f N b b f s g ).V.V.Y , A g I I @.@.[ A ` D g ] ^ 6.p.Q.| U.T./ 5.).[.[. XB e 4 4 3 - = 1 > = ",
"p 4 f t b b N f s s OX!.(.Y # t g D ` 1.` / D O.G A ^ v | y.Q.y.5.5.z ` [.[.#X#XG h 5 2 4 3 , > % % ",
"4 s f t b b N f H h Y.<.2.B . t C g k D D / ' O.*.o.O.l | y./.y./ k l 0 ~.+X XoXG N 4 2 5 3 > + < = ",
"4 4 t t N b N N g j V.<.+.Y . 1 e ; s d k z ^ ' O.^ @.z 6.u./.d.c s l - !.oX}.^.C N t t w 5 8 : + 1 ",
"p p t t b N N N 4 j A.3.+.O.. # - 4 C S ` A ^ %.^ o.*./ P.d.W.y.d B ; 4 ^.^.*X^.N b b t b 5 8 , 1 + ",
"4 s 7 f b b N B g j S.+.Y A . 4 p h T ] H.$.$.*.*.*.K.%.T.f.f.,.P G 2 B }.^.%XoXw t r b w b 5 > + + ",
"4 4 r t N N b N g U :X X X#.- f h H P Y I.m.*.*.m.K.I.%.T.d.f.8.L.Y D E XXoX^.=X, 5 t 5 8 8 5 1 : = ",
"0 e 4 f n C Z F t @.;X!.'.E - 3 h h d I C.7./ 6.L.T.w.y.u.u.f.E.J.5.I o. X X XoXt t t 5 2 > > > + > ",
"; p 4 u N N Z F Y ] ~.C.[.#.o 4 ; g j T 4.<.] w.w.T.i.i.p.a.p.u.i.0.*.w..X+X.X$Xw t 6 8 > > % > < : ",
"; 4 p 7 n N Z G G Y A.9.V.Y X u 4 j C S ] ` I *.%.I.U.i.E.J.p...i.6.i.w.[.[.@X@Xt t 5 1 1 1 > > @ + ",
"; ; 4 u 7 N Z F A o.I.` ] C X 4 e e 2 r Y ] I ` ' L.P.a.P.J.J. .a.8.w.5.q.C.OXOX7 5 2 1 > > % > : + ",
"- ; 4 3 p N Z Z I +.`.] A.Y = & 4 2 ; r I @.O.` ` H.H.&.P.J.P. .8.>.8.:.:.r.'.|.r 5 3 1 > > > > @ + ",
"- - ; 3 6 u N B +.@.*XY. XU = p r f B I o.o.O.@.@.H.H. .J.a.J. .8.>.e.>.t.t.'.|.f 4 1 > > > > + : + ",
"* - & 3 3 7 f B Y $.*X~.~.H o C S B G 3.9.1.1.9.@.0.0.~ 0.&.J.&.8.8.8.>.(.S.Y.|.f 7 2 = > > > : + + ",
"* - ; & 3 6 u f Y <.Y.[ +.U o 4 A w l 1.I.M.q.7.[ %.%.v 0...P.6.s.8.:.:.R.C.r.(.h 7 5 1 > > : + @ + ",
"* = ; 3 3 6 t f A <.*XY.[.F o C x T a 1.C.Y.) s.w.7.7./ ( ! 5.7.R.e.>.:.:.<.V.Z.f 4 3 + > : + + O + ",
"- ; = - 3 4 7 t r I *X~.).E o p h I a 1.t.t.T t.C.8.w.>.>._ 6.8.R.e.7.I r.q.Z.F.7 4 2 1 + + : + + @ ",
"- - 3 3 3 1 7 t t A -X(.(.2.= ; ; x d 7.r.r.I C.t.t.t.1.5.:.7.5.7.7.:.I 4.3.b.D.4 2 & + + + + + + O ",
"- - = 2 3 5 4 4 e 0 .XY.3.T o ; * s s <.<.T x 7.:.q.r.I ) ) :.I I :.I k 3.T W b.= = + + + + + O O O ",
"- - ; & 8 4 6 w w 9 {.[.q.U o 4 e g j W W Y F c.+.n.V.x I 3.3.D :.7.] I !.D.Z.G.+ + + O O : O O O @ ",
"= = ; 3 3 3 4 5 w r ~.{.A.T = p f g B C S g j U P W W s C Y +.e ;.I j S ^.^.D.N.+ + O O O O . O O O ",
"* = & & 1 3 1 - $ $ z ] P s o o o % % % % % % - % % -   # % - . $ $ # # F F Z 7 + @ O O O . . + O   ",
"- * = = 1 1 & # $ $ . . o o o & o % % + % % % o %   .   2 . + . . . % . %   O O + O O . + + . . O   ",
"& * * & & # = # + # % % # o + o + o + o + o + + o + + + + + + O . . . + . + + O O O O O O O O O   O ",
"* & = & = = % + # % % o + # # + o % o + # & + + & o O + + + O O . + O + + + + O O O O O O .   O O   "
};
