/* XPM */
static char *cb35f6d9b0854b9cc8c25e77b0560d17p4zyyaaCUcDgVYfc[] = {
/* columns rows colors chars-per-pixel */
"50 50 233 2 ",
"   c #000000",
".  c #080707",
"X  c #0B0907",
"o  c #0A0A0A",
"O  c #120E0B",
"+  c #14110C",
"@  c #1A140E",
"#  c #181715",
"$  c #201710",
"%  c #231A12",
"&  c #2E2114",
"*  c #2B2219",
"=  c #33261A",
"-  c #35281B",
";  c #3A2A1C",
":  c #382C21",
">  c #2B353A",
",  c #333533",
"<  c #383A38",
"1  c #422F1E",
"2  c #4A331F",
"3  c #423425",
"4  c #483728",
"5  c #4C3B2C",
"6  c #533B26",
"7  c #533D2B",
"8  c #433D34",
"9  c #4D3E31",
"0  c #503F31",
"q  c #4F402E",
"w  c #54412E",
"e  c #5D412B",
"r  c #4B4238",
"t  c #544332",
"y  c #594632",
"u  c #5B4934",
"i  c #64442B",
"p  c #6B472C",
"a  c #6B4A2E",
"s  c #754D2D",
"d  c #79542F",
"f  c #664A32",
"g  c #6C553E",
"h  c #765637",
"j  c #7B5433",
"k  c #7D5A3A",
"l  c #2B3D46",
"z  c #374447",
"x  c #3B4244",
"c  c #304955",
"v  c #344C54",
"b  c #3A4C57",
"n  c #0A436F",
"m  c #13466A",
"M  c #0E4B75",
"N  c #134D73",
"B  c #13537C",
"V  c #195779",
"C  c #285469",
"Z  c #385A65",
"A  c #255874",
"S  c #3A606B",
"D  c #25617E",
"F  c #33647A",
"G  c #4A4945",
"H  c #554F43",
"J  c #525248",
"K  c #474C51",
"L  c #4B5A59",
"P  c #595B57",
"I  c #6A5842",
"U  c #755B42",
"Y  c #5D615A",
"T  c #72654E",
"R  c #666358",
"E  c #7D725F",
"W  c #475966",
"Q  c #405E70",
"!  c #596B6F",
"~  c #486976",
"^  c #686867",
"/  c #657069",
"(  c #787565",
")  c #84541D",
"_  c #825C2C",
"`  c #845A36",
"'  c #885D37",
"]  c #835D3B",
"[  c #8B5F39",
"{  c #8C613C",
"}  c #976D33",
"|  c #93653D",
" . c #9B6D3A",
".. c #A3722F",
"X. c #846443",
"o. c #8B6847",
"O. c #926640",
"+. c #946A45",
"@. c #9C6E44",
"#. c #916C4B",
"$. c #96714B",
"%. c #9C734C",
"&. c #8C6E52",
"*. c #9B7653",
"=. c #997958",
"-. c #A06E40",
";. c #A37243",
":. c #A8784A",
">. c #A27C53",
",. c #A17B59",
"<. c #857863",
"1. c #997D62",
"2. c #B6894B",
"3. c #A98259",
"4. c #B48454",
"5. c #B4875A",
"6. c #BA8C5D",
"7. c #8C8468",
"8. c #988366",
"9. c #A78665",
"0. c #BA8E61",
"q. c #BC9265",
"w. c #BA966B",
"e. c #A79677",
"r. c #B39771",
"t. c #C99545",
"y. c #C1915E",
"u. c #C39565",
"i. c #C59A6A",
"p. c #CA9E6C",
"a. c #CBA474",
"s. c #D3AA79",
"d. c #DAB17E",
"f. c #165984",
"g. c #155A84",
"h. c #195E84",
"j. c #125C8A",
"k. c #0E5B91",
"l. c #1A648B",
"z. c #1C638C",
"x. c #186695",
"c. c #1D6A95",
"v. c #1C6B9A",
"b. c #1F719A",
"n. c #226385",
"m. c #23668A",
"M. c #296A89",
"N. c #356C85",
"B. c #397389",
"V. c #246D93",
"C. c #206E98",
"Z. c #297497",
"A. c #23749C",
"S. c #29759C",
"D. c #377996",
"F. c #1C75A3",
"G. c #1C74A9",
"H. c #2478A6",
"J. c #247CA4",
"K. c #2B7CA4",
"L. c #237EAB",
"P. c #4D788A",
"I. c #3F859F",
"U. c #2C81A5",
"Y. c #2481AB",
"T. c #2B84AC",
"R. c #2D89AF",
"E. c #3486AB",
"W. c #3985A8",
"Q. c #2584B2",
"!. c #2B86B2",
"~. c #2D8AB3",
"^. c #2A8BB8",
"/. c #348DB4",
"(. c #3A8EB1",
"). c #328CBA",
"_. c #3490B5",
"`. c #3990B3",
"'. c #3394BA",
"]. c #3B96BB",
"[. c #369ABE",
"{. c #3C99BD",
"}. c #43879F",
"|. c #588797",
" X c #638891",
".X c #5497AB",
"XX c #4595B6",
"oX c #439BBE",
"OX c #4A9BBC",
"+X c #5C9FB7",
"@X c #529EBE",
"#X c #56A2BD",
"$X c #60A3B4",
"%X c #2C92C5",
"&X c #369DC3",
"*X c #3A9CC2",
"=X c #3296C8",
"-X c #37A0C6",
";X c #3BA0C5",
":X c #3CA4CA",
">X c #3DA9CE",
",X c #3DACD2",
"<X c #429DC2",
"1X c #4C9FC0",
"2X c #42A2C5",
"3X c #43A5C9",
"4X c #4AA6CA",
"5X c #43A9CE",
"6X c #4DA9CC",
"7X c #56A4C4",
"8X c #53ADCD",
"9X c #5AACCC",
"0X c #43ADD3",
"qX c #4CADD1",
"wX c #51AED1",
"eX c #43B0D5",
"rX c #4CB2D6",
"tX c #49B4D9",
"yX c #52B2D6",
"uX c #5BB3D5",
"iX c #55B6D9",
"pX c #5AB7D9",
"aX c #5ABADC",
"sX c #63B6D5",
"dX c #64BBDB",
"fX c #67BCDB",
"gX c #61BFE0",
"hX c #6CC0DF",
"jX c #70C0DB",
"kX c #63C0E2",
"lX c #6CC2E1",
"zX c #71C5E2",
"xX c #77C8E4",
/* pixels */
"                                                                                                    ",
"                  .                         o + @ O X             . .                     . .       ",
"                . o                   X : I =.w.w.9.=.U 3 +       o                     . o         ",
"              . o                 + q =.w.a.a.i.i.p.p.i.w.3.5 X o                       o           ",
"              .               X t 3.i.p.u.6.3.%.+.%.0.0.0.q.q.3 .                     .             ",
"          o o               * &.i.y.5.>.] a 7 5 4 5 i h >.q.q.o.U =               o o               ",
"          o o             ; 3.u.4.@.a 7 x Z B.W.W.D.F v r U 3.0.p.3.=             o o               ",
"      . o               * >.y.4.O.e v B.OXuXgXkXaX6X4X4XW.Z t O.5.u.=.$       . o                   ",
"    . o               O o.6.4.{ r B.4XaXaX8XXXE.E.E.<XpXiX<XM.r ] 5.u.X.X     o                     ",
"  . o                 f 4.:.{ G }.aXaXOXZ.B n n n M g.S.<XyX3XZ.r O.6.6.4   o                       ",
"  .                 = >.;.| q D.yX5XS.N B x.c.A.H.C.g.M B K.6X5XN.7 >.6.$.+                         ",
"                    h :.-.i Z 4X{.z.B A.'.-XoX2X5X'.R.!.x.M m.2X2Xb j 4.4.-                         ",
"                  @ %.;.{ 8 XXqXz.M W.6XyX3X].5XpX2X].qX<Xv.M V.qXD.t :.:.i                         ",
"                  3 5. .s v wX(.M j.(.uXhX8XoXuXjX8XoXrXwXY.B N ^.!.x X.*.] O             . .       ",
"                  g 4.| e F yXn.g.F.XXuXzX9X1XsX|.#XOXrXyXR.l.V T.).C |. X] %             o         ",
"                o X.:.{ 5 D.<XB H.'.OXdXxX8XOX|.> Z XXrXiX_.c.m.D.E.A B.P.k -           o           ",
"              . o $.;.' 8 W.E.B ].4X7XfXzX9X1X+Xv P.OXyXiX].N.! / ! L K P k 1         .             ",
"          o o   O >.;.` x `.A.z.4X8X7XhXzXsX7XfX$X#X1XyXiX2XB.W K K x x K ` 6     o o               ",
"          o o   + 3.:.j z ].z.b.qX8X7XlXzXsX9XfXzXsX1XyXiX6XU.V.N m.V A N.k 6     o o               ",
"      . o       + >.:.d v oXz.J.uX6X@XzXzXsX9XfXzXfXOXpXaX3XL.L.g.!.C.z L [ 6 . o                   ",
"    . o         O %.;.s v oXm.K.pX8X@XzXlXsX9XsXzXdXOXfXlX4XL.Y.g.~.S.9 { | 7 o                     ",
"    o           X #.;.s v oXm.L.pX6X@XzXfXuX7XuXlXsXOXpXlX4XT.Q.h.).S.9 +.*.7                       ",
"  .             X X.;.j v {.h.F.yX6XOXdXiXyX@XuXfX8XXXyXdX5X~.^.l.).S.9 =.9.7                       ",
"                . k ;.j v _.V J.qX6XOXyXrX6X@XfXpX2XOXqXrX5X!.!.z.).S.9 ,.9.5                       ",
"                  h ;.` v T.V J.rXqXOXyXrX2XOXuX0X2X@XwXeX5XY.Q.z.).V.q *.*.4                       ",
"                  f ;.' v U.B S.$X.XXXrXrX3XXXrX0X2XXX3X0X5XY.Q.l.).V.t =.=.3             . .       ",
"                  w ;.[ v T.V / 6.2./ 3XtX5XOXrX,X:X(.3X0X5XT.Q.z./.V.t 9.1.;             o         ",
"                . 1 @.[ v ~.S ......d I.tX5X1XrX,X:X(.3XeX5X!.!.m.T.m.0 1.=.-           o           ",
"              .   = @.{ z T.S } } ) a D.eX:X<X0X,X:X(.2X0X5X~.!.c.Q.m.0 *.#.=         .             ",
"          o o     & %.{ z J.z.L _ u b '.eX:XoX0X,X:X`.3X0X0X/.Q.x.Q.h.5 %.+.-     . o               ",
"          o o     % $.O.< J.V.D.I A K.>X,X:X].,X,X3X(.:XeXqX/.Q.x.L.V 7 @.+.;     o o               ",
"      . o         @ &.o.< A.V.D.R V.T.>X>X:X'.,X0X>X/.5XtX0X~.Q.z.L.V 5 | | 2 . o                   ",
"    . o           @ &.X., A.m.(  .L J.5XeX:X'.,X>X:X_.3XeX0X).Q.l.Q.z.7 { | 6 o                     ",
"    o             : %.` , A.n.7.t.H A.5XeX:X'.,X:X:X`.:X,X0X^.Q.g.!.n.7 [ { 3                       ",
"  .               5 :.[ , V.h.M.~ D J.>XeX:X'.,X:X;X/.-XeX>X^.G.g.%Xn.7 { ] :                       ",
"                  4 >.+.< z.h.F.*X2X~.5XeX-X'.,X:X[.R.-X0X>X!.G.l.=XD e | ` ;                       ",
"                  ; =.&.8 z.h.v.*XqX~.;X>X&X_.>X:X[.R.-X,X-X!.H.V.=XD i O.{ -                       ",
"                  * #.#.5 n.h.x.*X5XR.*X:X&X'.:X:X[._.:X:X&X^.F.S.=XM.i %.+.%               .       ",
"                  * X.#.5 V z.x.].3XT.*X:X*X/.&X*X'.~.&X&X'.L.j.z.=XA p %.{ %             o         ",
"                . % ] +.7 A z.l.'.;XY.'.2X[.R.E.|.|.P.P.P.~ Q W W ~ b a @.j @           o           ",
"              .   $ k +.i C c.j.Y.'.Y.].{.'.R.N.^ ^ ^ ^ ^ ^ P ^ ^ R G a | a O         .             ",
"          o o     $ k O.a C A.j.Q.2XR.'.[.'.~.T.F Z b W W W b b b c , a O.i X     . o               ",
"          o o     @ ] | s C A.g.Q.4XE.'.[.'.T.'.~.Y.K././.K.V.B g.l.> s O.i X     o o               ",
"      . o         @ k { j c b.B L.'.L.~.'.^.!.%X!.Q.!.3X3XL.F.g.h.B , s { e .   o                   ",
"    . o           # 7 i p l B m j.v.x.v.c.v.v.v.v.v.v.H.v.k.k.B N N x i s 4 # o                     ",
"    o       + t T ! Z 8 8 z L J P ^ ( ( E <.1.8.8.7.<.E E R R Y L L H e 7 9 G 9 +                   ",
"  .         5 8.e.e.e.9.8.r.a.s.d.d.d.d.a.i.i.i.i.p.i.i.i.i.p.q.*.%.>.=.U g U g @                   ",
"            X @ * 3 w y 5 t t t t t t t t y y u y y t t w w w 3 = - : : * $ @ O                     ",
"                                                                                                    ",
"                                                                                                    "
};
