/* XPM */
static char *_8cd2e999a724745a65a671a1e0b8167Aw2u51eTXyOzwCuy[] = {
/* columns rows colors chars-per-pixel */
"50 50 250 2 ",
"   c #010101",
".  c #0B0101",
"X  c #010A02",
"o  c #01020B",
"O  c #0B030A",
"+  c #010B0B",
"@  c #0B0B0B",
"#  c #0C0904",
"$  c #130101",
"%  c #1B0101",
"&  c #130C03",
"*  c #130C0B",
"=  c #1B0A07",
"-  c #071208",
";  c #1B120C",
":  c #181308",
">  c #010312",
",  c #020B13",
"<  c #0C0C11",
"1  c #010919",
"2  c #150B13",
"3  c #091316",
"4  c #171516",
"5  c #230201",
"6  c #2C0001",
"7  c #230C09",
"8  c #370504",
"9  c #2B1804",
"0  c #3A1907",
"q  c #301613",
"w  c #362813",
"e  c #302B0D",
"r  c #010825",
"t  c #091827",
"y  c #131926",
"u  c #061A33",
"i  c #261D24",
"p  c #12262D",
"a  c #10272C",
"s  c #272429",
"d  c #362B29",
"f  c #353239",
"g  c #332E35",
"h  c #122414",
"j  c #450507",
"k  c #591803",
"l  c #50100E",
"z  c #6B0504",
"x  c #6D1707",
"c  c #701417",
"v  c #582715",
"b  c #54310E",
"n  c #652A18",
"m  c #6C3517",
"M  c #742E0D",
"N  c #6A1826",
"B  c #562C23",
"V  c #463423",
"C  c #5A372B",
"Z  c #443836",
"A  c #503037",
"S  c #692927",
"D  c #673729",
"F  c #663938",
"G  c #75322A",
"H  c #6D401F",
"J  c #554A2C",
"K  c #674735",
"L  c #7C453A",
"P  c #784834",
"I  c #6C4A31",
"U  c #7D6C38",
"Y  c #152C45",
"T  c #393A47",
"R  c #2A3856",
"E  c #2F2E4A",
"W  c #3C3968",
"Q  c #573845",
"!  c #4C364C",
"~  c #683E46",
"^  c #643E5B",
"/  c #364853",
"(  c #3A546C",
")  c #364C76",
"_  c #2A5677",
"`  c #37506C",
"'  c #3B617B",
"]  c #1F4F73",
"[  c #5A4B47",
"{  c #595546",
"}  c #4F4E55",
"|  c #554958",
" . c #4E5054",
".. c #644A4D",
"X. c #774A46",
"o. c #7A5948",
"O. c #675957",
"+. c #765657",
"@. c #4B605B",
"#. c #756757",
"$. c #414A68",
"%. c #465667",
"&. c #565668",
"*. c #4E5675",
"=. c #685968",
"-. c #625B7A",
";. c #6B5273",
":. c #486579",
">. c #566479",
",. c #58626C",
"<. c #6B6366",
"1. c #72676A",
"2. c #6A6C75",
"3. c #786E72",
"4. c #697279",
"5. c #7A747A",
"6. c #9A0A16",
"7. c #920E10",
"8. c #A00016",
"9. c #8E2C13",
"0. c #881725",
"q. c #9B1328",
"w. c #AB1325",
"e. c #853D36",
"r. c #8C3A27",
"t. c #BF373B",
"y. c #86473A",
"u. c #83523E",
"i. c #904F28",
"p. c #996632",
"a. c #AA6D36",
"s. c #945525",
"d. c #963F45",
"f. c #865A49",
"g. c #855A58",
"h. c #9B5754",
"j. c #8B5049",
"k. c #876647",
"l. c #896A53",
"z. c #99785F",
"x. c #936953",
"c. c #B06D56",
"v. c #855B6D",
"b. c #955D66",
"n. c #86797C",
"m. c #867878",
"M. c #8E736C",
"N. c #A67B67",
"B. c #A0636B",
"V. c #A65449",
"C. c #CE755E",
"Z. c #CC4448",
"A. c #B4863B",
"S. c #B48358",
"D. c #B18952",
"F. c #988478",
"G. c #BC8979",
"H. c #B6937A",
"J. c #A98D72",
"K. c #C49A54",
"L. c #C88550",
"P. c #CCA05B",
"I. c #E4A85F",
"U. c #C38F72",
"Y. c #D18F6C",
"T. c #E78C73",
"R. c #C7A76C",
"E. c #D4A864",
"W. c #D3B377",
"Q. c #EAB26F",
"!. c #1D5B98",
"~. c #3A5C85",
"^. c #34598E",
"/. c #286488",
"(. c #3B6483",
"). c #336D8E",
"_. c #396799",
"`. c #257399",
"'. c #367798",
"]. c #2576A6",
"[. c #366DA4",
"{. c #4D5E8C",
"}. c #496687",
"|. c #586887",
" X c #5A7488",
".X c #496998",
"XX c #487399",
"oX c #567499",
"OX c #5A6197",
"+X c #797683",
"@X c #667792",
"#X c #65738C",
"$X c #466CA5",
"%X c #4875A5",
"&X c #5476A8",
"*X c #4E7CB8",
"=X c #665782",
"-X c #857D82",
";X c #9079A3",
":X c #798289",
">X c #76869A",
",X c #6F8690",
"<X c #6384A2",
"1X c #7791AA",
"2X c #73A2B8",
"3X c #5280B4",
"4X c #8A8389",
"5X c #978A8B",
"6X c #898D9A",
"7X c #928B93",
"8X c #879599",
"9X c #96949D",
"0X c #B89588",
"qX c #B0918B",
"wX c #B6A69E",
"eX c #AAA09F",
"rX c #9C96A8",
"tX c #8895B1",
"yX c #A498B4",
"uX c #98A8B1",
"iX c #8CAAB5",
"pX c #B5ADB0",
"aX c #C49C98",
"sX c #D79791",
"dX c #C5938B",
"fX c #FB9181",
"gX c #D3B198",
"hX c #CDA990",
"jX c #F2B385",
"kX c #C5ACA2",
"lX c #D3A5A4",
"zX c #C8B3A9",
"xX c #D5B4A7",
"cX c #CABBB7",
"vX c #D5B8B0",
"bX c #E2B4B6",
"nX c #E6B5AB",
"mX c #D5C2B8",
"MX c #D9C9B1",
"NX c #EDCAAE",
"BX c #A39DC1",
"VX c #B8B7C8",
"CX c #A9ADD0",
"ZX c #C2BDDB",
"AX c #BFC0D2",
"SX c #BCC4E9",
"DX c #D0C6C7",
"FX c #E8D6C7",
"GX c #F2D5CC",
"HX c #FAE7D2",
/* pixels */
"                              . % % $ o > > > o <   . % % % % 5 6 6 8 5 % O 2 o > > o o o o o       ",
"                                $ % . o > > > o   . % 5 6 6 8 j N l j 6 % $ O o o o o o             ",
"                                . .   o > > > o . % 8 j l l c N j.G S S 0 5 = .                     ",
"                                .     o > > > o $ 8 N c 0.0.q.0.z c e.y.D B q . .           .       ",
"                                      o o > o . 5 j c 0.q.w.q.7.x i.C.c.x.x.C $ . . . . . . . .     ",
"                                        o o   . 5 j z 7.6.6.8.6.C.T.jXT.U.G.o.5 . . . . . . . .     ",
"                                        o o   $ 5 8 z 7.6.7.w.Z.fXL.c.U.U.J.K $ . . .               ",
"                                              . 5 8 z 9.7.7.t.fXjXp.i.S.dXJ.K = .                   ",
"                                  X < +   X X . 5 6 k 9.9.9.T.r.m m x.b H.K w { . X   o o   o       ",
"                                *       X     & % 5 M C.Y.s.Y.c.H gX0XK % K O.f   o o o o o o o     ",
"                                = .   O X       $ b D.jXjXD.jXNXk.H.xXJ.O.O.eXi o o o o o o o o     ",
"                                . % 2     4 J J U R.Q.E.E.K.R.gXz.C o.M.wXm.4X    o o o o o o o     ",
"                                . $ .     : #.MXW.W.K.A.E.Q.D.D.NXgXM.N.F.HX1.4                     ",
"                                = . . *     e H.R.P.K.Q.Q.E.p.R.H.xXxXqXqXqX7 . $ . .               ",
"                                $ . . @     w u.R.P.I.Q.L.a.M a.N.z.0XaXlXC % % % % $ . .           ",
"                                . = . . = M.MXNXD.p.s.s.p.Q.s.i.G.f.% X.8 % $ 5 7 = % $ . .         ",
"X         O O o o , ,     + - X . $ % C dXnXG.f.I J J l.nXnXnXL g.0X5 $ $ % = . #.zXn.* . *         ",
"X X     . O O O > o o + +       & $ B sXsXe.n X.0 . = qXzXaXbXlXJ.F.$ % 7 . = d n.GXcX[ *     2     ",
"X         . O o <     X X     : $ 9 o.G.c.e.S v 0 $ V FXkX0XaXbX0XM.$ $ $ . . d zXDXn.i .     @     ",
"            o       X     . V o.l.o.o.D v h.L 5 $ 9 F.HXMXFXGX0XvXGXwXkXmXcXDXmX5X<.*     *         ",
"                  X X   $ V f.x.dXI C D n y.u.0 5 K MXFXGXHXGXo.M.mXFXcXpX5X#.d ; ; # . *     .     ",
"                  X     0 f.j.m P b H f.P P f.x.x.J.HXMXHXNXdXK $ = d d d ; ; .     & *       *     ",
"                X X   . l P r.k n H u.P D D D D 0X0XxXgXNXnXN.N.V . &       . * ;           .       ",
"                X X   $ 8 k x M m k j v L P B B lXvXaXaX0X0Xv g.q   ;   #   *         * . . .       ",
"O       4   +   X h { { C u.c.V.y.y.L D D F F ~ F qXbXbXlXb.F K . X                                 ",
"        @   + 3 @.:XpXwXM.f.h.h.h.h.j.~ F Q Q A Q Q A ~ v.X.F ..      4 @     @                     ",
"    @   o o f 4.uX8X8X:X<.+.g.j.B.b.+...| | ! ! ! ! ^ ^ Q Q Q d 4             X                     ",
"X   @   o f +XVXuX#X%.,.&.<.v.v.v.v.=.| &.>.*.$.E =X;X;.E | T o o +                                 ",
"    #   2 +XrXVX|.>.@X>X>.$.&.-.;.;.&.%.}.XX.X~.~.OXOXW R @X@Xu o   , 3 o     @                     ",
"X   -   i pXyXrX@X XoXoX~.) ) *.-.-.:.(.).'.[._.$X.X.X{.}.<X2X2X( , o   3     3                     ",
"X   -   s ZXyXBXSXtXoX.X_.%X&X.X{.|.}.).`.].].].!.[.$X&X%X/.'.2XiX%.+     +                         ",
"X       4 yXrXZXCXtX1XoX~.~..X~.{..XXX).`.].].].[.*X_.^.*X%X/./.:.1X@Xt o , 3                       ",
"        * ! 7XDXAX6X%.R ` >.|.}..X_.^._.XX&X.X}.) ~..X.X$X%X[./._ ' <X Xt o o # . . ; ;             ",
". . .     O g } } g 1 o y T >.@X.X$X$X&XoX|.` R r r u ) &X&X$X$X%X] (.<X%.y O . Z . .     o o o     ",
"  . .         O O o o o > y T $..X.XXX}.( E t > > > > Y }.oXXXXXXX_ _ }.%.T | <.O.$ . .       <     ",
"    . # @ @       o > > o > > r / ] R Y t o o   o 3 , > u ' oX(.~.(.' ` %.4.7X5X..d Z Z s <   o     ",
"        . .       o o > > o o > > , , o       #   @ X   o p %.}.' (.:. X6X6X=.d [ O.m.<. .} ,       ",
".                   o o o o o o o +   X       #       +     a :.' ' :.tXuX&.4 i 1.m.n.1.5.5.s       ",
"          X O O O O o o   o o o o + + X         &     4 -   + / ( '  XtX>Xf s 3.m.m.5.<.4X2.4 o     ",
"                    o o                       . .           + a :. X X,X6X<.| -X3.3.m.1.3./   o     ",
"                                                              o / >X,X%.4.rX4X3.5Xm.5.3.} <         ",
"                                o o                         o o p >.,X4.+X+X3.5.3.n.-XO.s     @     ",
"                                  o o o o             o o o o o 1 / 4.:X9X7X4X7X3.-X1.g       O     ",
"                                  o o o o o o o o o o o o o o o o , y T 5.9X7X5.7X<.d       X       ",
"                                            o o                         T 4X9X2.1.d     O X         ",
"                                                                @ 3 <   < | -X=.4     * *     X     ",
"                            .                                             < g i       * X     X     ",
"                                                                X     4     <   O 2 O       X       ",
"                                                                                                    ",
"                                                                                                    "
};
