/* XPM */
static char *_3733e9cbbc944edeee0da3e970cac5487YWWF32ghuExroj[] = {
/* columns rows colors chars-per-pixel */
"50 50 204 2 ",
"   c None",
".  c black",
"X  c #010100",
"o  c #020200",
"O  c #030300",
"+  c #040300",
"@  c #040400",
"#  c #050400",
"$  c #050500",
"%  c #060600",
"&  c #070600",
"*  c #070700",
"=  c #080800",
"-  c #090900",
";  c #0A0A00",
":  c #0C0C00",
">  c #0D0D00",
",  c #0E0E00",
"<  c #0F0E00",
"1  c #0F0F00",
"2  c #100F00",
"3  c #101000",
"4  c #111100",
"5  c #121100",
"6  c #121200",
"7  c #141300",
"8  c #141400",
"9  c #151500",
"0  c #161500",
"q  c #161600",
"w  c #171700",
"e  c #181700",
"r  c #191900",
"t  c #1A1A00",
"y  c #1B1B00",
"u  c #1C1B00",
"i  c #1E1D00",
"p  c #1F1E00",
"a  c #1F1F00",
"s  c #202000",
"d  c #212100",
"f  c #222200",
"g  c #232200",
"h  c #232300",
"j  c #242300",
"k  c #242400",
"l  c #252400",
"z  c #262600",
"x  c #272600",
"c  c #282700",
"v  c #292900",
"b  c #2E2E00",
"n  c #2F2E00",
"m  c #303000",
"M  c #323100",
"N  c #343400",
"B  c #353500",
"V  c #363600",
"C  c #373600",
"Z  c #373700",
"A  c #383700",
"S  c #383800",
"D  c #3A3900",
"F  c #3B3A00",
"G  c #3D3C00",
"H  c #3D3D00",
"J  c #3E3D00",
"K  c #3F3E00",
"L  c #403F00",
"P  c #404000",
"I  c #414000",
"U  c #434200",
"Y  c #444300",
"T  c #444400",
"R  c #454500",
"E  c #464600",
"W  c #474700",
"Q  c #484700",
"!  c #4D4C00",
"~  c #4E4D00",
"^  c #4F4E00",
"/  c #504F00",
"(  c #515000",
")  c #545300",
"_  c #585700",
"`  c #595800",
"'  c #5A5A00",
"]  c #5B5B00",
"[  c #5E5E00",
"{  c #605F00",
"}  c #626200",
"|  c #636200",
" . c #646400",
".. c #676600",
"X. c #686700",
"o. c #6B6B00",
"O. c #6C6B00",
"+. c #6D6C00",
"@. c #6F6E00",
"#. c #717000",
"$. c #767500",
"%. c #777500",
"&. c #777600",
"*. c #787700",
"=. c #7E7D00",
"-. c #7F7E00",
";. c #817F00",
":. c #818000",
">. c #828100",
",. c #838200",
"<. c #848300",
"1. c #888700",
"2. c #8A8900",
"3. c #8C8A00",
"4. c #8D8C00",
"5. c #8E8D00",
"6. c #949300",
"7. c #969400",
"8. c #969500",
"9. c #979600",
"0. c #9B9900",
"q. c #9C9B00",
"w. c #9D9C00",
"e. c #9F9D00",
"r. c #A09F00",
"t. c #A1A000",
"y. c #A3A200",
"u. c #A4A200",
"i. c #A5A300",
"p. c #A5A400",
"a. c #A6A500",
"s. c #A7A500",
"d. c #A8A600",
"f. c #A9A700",
"g. c #A9A800",
"h. c #AAA900",
"j. c #ABAA00",
"k. c #ADAB00",
"l. c #ADAC00",
"z. c #AEAC00",
"x. c #B0AF00",
"c. c #B1B000",
"v. c #B3B100",
"b. c #B3B200",
"n. c #B4B200",
"m. c #B4B300",
"M. c #B5B300",
"N. c #B6B400",
"B. c #B7B500",
"V. c #B7B600",
"C. c #B8B600",
"Z. c #B9B700",
"A. c #BAB800",
"S. c #BAB900",
"D. c #BCBB00",
"F. c #BDBC00",
"G. c #BEBC00",
"H. c #BEBD00",
"J. c #BFBD00",
"K. c #BFBE00",
"L. c #C0BF00",
"P. c #C2C100",
"I. c #C4C200",
"U. c #C4C300",
"Y. c #C7C500",
"T. c #C9C700",
"R. c #CCCA00",
"E. c #CCCB00",
"W. c #CFCE00",
"Q. c #D2D000",
"!. c #D3D100",
"~. c #D4D200",
"^. c #D6D400",
"/. c #D7D500",
"(. c #D8D600",
"). c #D9D700",
"_. c #DAD800",
"`. c #DBD900",
"'. c #DCDA00",
"]. c #DDDB00",
"[. c #DEDD00",
"{. c #DFDD00",
"}. c #E0DF00",
"|. c #E2E000",
" X c #E3E100",
".X c #E4E200",
"XX c #E4E300",
"oX c #E5E300",
"OX c #E6E400",
"+X c #E7E500",
"@X c #E8E600",
"#X c #E9E700",
"$X c #EAE800",
"%X c #ECEA00",
"&X c #EDEB00",
"*X c #EEEC00",
"=X c #EFED00",
"-X c #F0EE00",
";X c #F1EF00",
":X c #F2F000",
">X c #F3F100",
",X c #F4F200",
"<X c #F5F300",
"1X c #F6F400",
/* pixels */
"                                                . . - > > - + .                                     ",
"                                        . 8 B ] -.0.g.m.m.k.w.>.{ S e .                             ",
"                                    > H >.K.|.;X1X1X1X<X<X1X1X1X:XoXI.2.E 4                         ",
"                                > ~ g.oX<X<X:X:X:X:X:X:X:X:X:X:X:X:X<X1X#Xc.] 4                     ",
"                            . S u.$X1X:X:X:X:X:X:X:X:X:X:X:X:X:X:X:X:X:X:X<X=Xx.E .                 ",
"                          > +.`.<X:X:X:X:X:X:X:X:X:X:X:X:X:X:X:X:X:X:X:X:X:X:X<X|.-.8               ",
"                        u 9.=X<X:X:X:X:X:X:X:X:X:X:X:X:X:X:X:X:X:X:X:X:X:X:X:X:X:X:Xd.z             ",
"                      d l.<X:X:X:X:X:X:X:X:X:X:X:X:X:X:X:X:X:X:X:X:X:X:X:X:X:X:X:X:X<XK.m           ",
"                    d c.<X:X:X:X:X:X:X:X:X:X:X:X:X:X:X:X:X:X:X:X:X:X:X:X:X:X:X:X:X:X<X#X] .         ",
"                  7 y.<X:X:X:X:X:X:X:X:X:X:X:X:X:X:X:X:X:X:X:X:X:X:X:X:X:X:X:X:X:X<XoX..#           ",
"                # ;.:X:X:X:X:X:X:X:X:X:X:X:X:X:X:X:X:X:X:X:X:X:X:X:X:X:X:X:X:X:X<X[.] .             ",
"                ~ OX:X:X:X:X:X:X:X:X:X:X:X:X:X:X:X:X:X:X&X:X:X:X:X:X:X:X:X:X:X<X(.( .               ",
"              u K.<X:X:X:X:X:X:X:X:X:X:X:X:X:X:X:X:X'.$.Q $.`.:X:X:X:X:X:X:X<X!.E .                 ",
"            . #.:X:X:X:X:X:X:X:X:X:X:X:X:X:X:X:X:X=X} . . . { &X:X:X:X:X:X<XR.H .                   ",
"            d R.<X:X:X:X:X:X:X:X:X:X:X:X:X:X:X:X<X`.d . . . a /.<X:X:X:X<XI.B .                     ",
"          . X.:X:X:X:X:X:X:X:X:X:X:X:X:X:X:X:X:X:XoXB . . . B |.:X:X:X<XD.b                         ",
"          > m.<X:X:X:X:X:X:X:X:X:X:X:X:X:X:X:X:X:X:Xd.j # d a.:X:X:X<Xc.c                           ",
"          A |.:X:X:X:X:X:X:X:X:X:X:X:X:X:X:X:X:X:X:X:X!.m.!.:X:X:X<Xg.d                             ",
"          o.:X:X:X:X:X:X:X:X:X:X:X:X:X:X:X:X:X:X:X:X:X<X1X<X:X:X:Xr.r                               ",
"        # q.1X:X:X:X:X:X:X:X:X:X:X:X:X:X:X:X:X:X:X:X:X:X:X:X:X;X9.8                                 ",
"        8 L.<X:X:X:X:X:X:X:X:X:X:X:X:X:X:X:X:X:X:X:X:X:X:X:X=X3.4                                   ",
"        z /.<X:X:X:X:X:X:X:X:X:X:X:X:X:X:X:X:X:X:X:X:X:X:X&X>.>                                     ",
"        B |.:X:X:X:X:X:X:X:X:X:X:X:X:X:X:X:X:X:X:X:X:X:X$X$.-                                       ",
"        L #X:X:X:X:X:X:X:X:X:X:X:X:X:X:X:X:X:X:X:X:X:XoX+.#                                         ",
"        U $X:X:X:X:X:X:X:X:X:X:X:X:X:X:X:X:X:X:X:X:X<X0.#                                           ",
"        U #X:X:X:X:X:X:X:X:X:X:X:X:X:X:X:X:X:X:X:X:X:X'./ .                                         ",
"        B oX:X:X:X:X:X:X:X:X:X:X:X:X:X:X:X:X:X:X:X:X:X<X/.H                                         ",
"        c (.<X:X:X:X:X:X:X:X:X:X:X:X:X:X:X:X:X:X:X:X:X:X<XT.m                                       ",
"        8 P.<X:X:X:X:X:X:X:X:X:X:X:X:X:X:X:X:X:X:X:X:X:X:X<XS.j                                     ",
"        # w.1X:X:X:X:X:X:X:X:X:X:X:X:X:X:X:X:X:X:X:X:X:X:X:X<Xg.r                                   ",
"          +.<X:X:X:X:X:X:X:X:X:X:X:X:X:X:X:X:X:X:X:X:X:X:X:X:X:X9.4                                 ",
"          S oX:X:X:X:X:X:X:X:X:X:X:X:X:X:X:X:X:X:X:X:X:X:X:X:X:X;X<.-                               ",
"          4 V.<X:X:X:X:X:X:X:X:X:X:X:X:X:X:X:X:X:X:X:X:X:X:X:X:X:X&X#..                             ",
"          . O.:X:X:X:X:X:X:X:X:X:X:X:X:X:X:X:X:X:X:X:X:X:X:X:X:X:X:XOX[ .                           ",
"            z W.<X:X:X:X:X:X:X:X:X:X:X:X:X:X:X:X:X:X:X:X:X:X:X:X:X:X<X[.~ .                         ",
"            . $.:X:X:X:X:X:X:X:X:X:X:X:X:X:X:X:X:X:X:X:X:X:X:X:X:X:X:X<X~.H                         ",
"              a I.<X:X:X:X:X:X:X:X:X:X:X:X:X:X:X:X:X:X:X:X:X:X:X:X:X:X:X<XY.b                       ",
"                ) #X:X:X:X:X:X:X:X:X:X:X:X:X:X:X:X:X:X:X:X:X:X:X:X:X:X:X:X<XZ.d                     ",
"                # 1.:X:X:X:X:X:X:X:X:X:X:X:X:X:X:X:X:X:X:X:X:X:X:X:X:X:X:X:X<Xa.8                   ",
"                  8 g.<X:X:X:X:X:X:X:X:X:X:X:X:X:X:X:X:X:X:X:X:X:X:X:X:X:X:X:X:X6.>                 ",
"                    z Z.<X:X:X:X:X:X:X:X:X:X:X:X:X:X:X:X:X:X:X:X:X:X:X:X:X:X:X:X;X>.-               ",
"                      v V.<X:X:X:X:X:X:X:X:X:X:X:X:X:X:X:X:X:X:X:X:X:X:X:X:X:X:X:X&X#.#             ",
"                        d y.;X:X:X:X:X:X:X:X:X:X:X:X:X:X:X:X:X:X:X:X:X:X:X:X:X:X:X<Xu.2             ",
"                          4 *.}.<X:X:X:X:X:X:X:X:X:X:X:X:X:X:X:X:X:X:X:X:X:X:X<XOX1.r               ",
"                            . U l.&X<X:X:X:X:X:X:X:X:X:X:X:X:X:X:X:X:X:X:X<X;XS.~ #                 ",
"                                4 _ c.#X1X<X:X:X:X:X:X:X:X:X:X:X:X:X<X1X&XD.} 8                     ",
"                                    4 E 5.Y.OX:X1X1X<X<X<X<X1X1X<X$XR.9.~ 8 .                       ",
"                                        . r H ..2.a.V.K.K.V.d.5.O.Y a .                             ",
"                                                . # > 4 4 > # .                                     ",
"                                                                                                    "
};
