/* XPM */
static char *player_left__1_1741183741[] = {
/* columns rows colors chars-per-pixel */
"50 50 251 2 ",
"   c #010101",
".  c #0B0101",
"X  c #020A03",
"o  c #0A0A05",
"O  c #01030B",
"+  c #0A020B",
"@  c #030A0A",
"#  c #0B0C0B",
"$  c #130101",
"%  c #1B0100",
"&  c #120A03",
"*  c #1A010C",
"=  c #180807",
"-  c #091408",
";  c #18120A",
":  c #000313",
">  c #010B14",
",  c #050C18",
"<  c #190913",
"1  c #0B1415",
"2  c #121413",
"3  c #1B1519",
"4  c #240100",
"5  c #2C0001",
"6  c #240B02",
"7  c #2B0606",
"8  c #360303",
"9  c #2B1302",
"0  c #3A1706",
"q  c #2B191B",
"w  c #3B1513",
"e  c #19261F",
"r  c #392810",
"t  c #061626",
"y  c #061629",
"u  c #2D1D27",
"i  c #1A2525",
"p  c #172838",
"a  c #092032",
"s  c #272625",
"d  c #37232A",
"f  c #34273C",
"g  c #313736",
"h  c #2A302D",
"j  c #461C05",
"k  c #561C00",
"l  c #481212",
"z  c #551014",
"x  c #6E1603",
"c  c #7A1A1B",
"v  c #7B0E00",
"b  c #442407",
"n  c #462616",
"m  c #55271B",
"M  c #572D12",
"N  c #642C08",
"B  c #643217",
"V  c #5F1E26",
"C  c #691923",
"Z  c #7D1D2B",
"A  c #553724",
"S  c #4A2D33",
"D  c #6A3429",
"F  c #743A2A",
"G  c #663636",
"H  c #773B37",
"J  c #692A2A",
"K  c #37433F",
"L  c #77481A",
"P  c #5E432B",
"I  c #4A4238",
"U  c #544537",
"Y  c #555531",
"T  c #694629",
"R  c #774827",
"E  c #6A483A",
"W  c #794938",
"Q  c #7B5A3A",
"!  c #685338",
"~  c #6D663A",
"^  c #1C3647",
"/  c #162F45",
"(  c #273A49",
")  c #36354C",
"_  c #143F6A",
"`  c #473A43",
"'  c #54334A",
"]  c #4C3451",
"[  c #673847",
"{  c #2C455D",
"}  c #384B59",
"|  c #3C4B50",
" . c #395367",
".. c #3C5573",
"X. c #2E4B70",
"o. c #3D627F",
"O. c #544955",
"+. c #52484B",
"@. c #77494F",
"#. c #665A41",
"$. c #785643",
"%. c #664655",
"&. c #645458",
"*. c #795757",
"=. c #674B47",
"-. c #5A635D",
";. c #756750",
":. c #46566C",
">. c #445678",
",. c #575671",
"<. c #50506B",
"1. c #6D5A64",
"2. c #685C7A",
"3. c #5B666A",
"4. c #4B647D",
"5. c #46647A",
"6. c #5B6776",
"7. c #5B717F",
"8. c #656B65",
"9. c #76676B",
"0. c #6E736D",
"q. c #73726E",
"w. c #676676",
"e. c #7A6C76",
"r. c #69747D",
"t. c #787974",
"y. c #981416",
"u. c #900A0B",
"i. c #A60E08",
"p. c #9D200E",
"a. c #B32E1A",
"s. c #841B26",
"d. c #911B2B",
"f. c #83303B",
"g. c #874D15",
"h. c #8B5331",
"j. c #9B6E32",
"k. c #C04233",
"l. c #885B49",
"z. c #855B54",
"x. c #995C59",
"c. c #A54048",
"v. c #8A644B",
"b. c #89685B",
"n. c #8C715A",
"m. c #987459",
"M. c #956951",
"N. c #A77D59",
"B. c #A56C4C",
"V. c #847166",
"C. c #8A777B",
"Z. c #95736B",
"A. c #A87A68",
"S. c #A87874",
"D. c #AE7165",
"F. c #895F6D",
"G. c #CD5659",
"H. c #CE794B",
"J. c #7D8055",
"K. c #77847D",
"L. c #B58736",
"P. c #B48852",
"I. c #B38B78",
"U. c #B89478",
"Y. c #AD8D71",
"T. c #BFAB78",
"R. c #998972",
"E. c #D19F4B",
"W. c #CC9757",
"Q. c #C59C4A",
"!. c #DAA357",
"~. c #E0B05E",
"^. c #C98D6C",
"/. c #EA9465",
"(. c #D4AE71",
"). c #E9AA67",
"_. c #E7B766",
"`. c #FFB87A",
"'. c #E88252",
"]. c #2C5D86",
"[. c #3D5A86",
"{. c #38658A",
"}. c #266894",
"|. c #3A6A96",
" X c #2F6E96",
".X c #3675A4",
"XX c #4E5D84",
"oX c #446C8B",
"OX c #496A88",
"+X c #556B8B",
"@X c #466994",
"#X c #586C98",
"$X c #42739A",
"%X c #587796",
"&X c #4E738D",
"*X c #67788B",
"=X c #7A7986",
"-X c #687E9E",
";X c #717090",
":X c #4479A6",
">X c #5A72A2",
",X c #6E77A2",
"<X c #897B84",
"1X c #927D86",
"2X c #3A81AB",
"3X c #778690",
"4X c #7692B3",
"5X c #6E84A6",
"6X c #5A8ABB",
"7X c #958486",
"8X c #898B95",
"9X c #978B97",
"0X c #87929C",
"qX c #959190",
"wX c #BA968A",
"eX c #A99691",
"rX c #AF8E89",
"tX c #AEA592",
"yX c #959AA5",
"uX c #8896A1",
"iX c #9AA5B1",
"pX c #B8ABA6",
"aX c #AEAEB1",
"sX c #C09B88",
"dX c #C59A96",
"fX c #DA9786",
"gX c #EF958D",
"hX c #CDA397",
"jX c #D2A79C",
"kX c #CFB390",
"lX c #F1B39D",
"zX c #D9ADAA",
"xX c #CBB5AA",
"cX c #D8B5A8",
"vX c #CFBBB3",
"bX c #D0B0AC",
"nX c #E7BEB7",
"mX c #E3B5A4",
"MX c #D9C19D",
"NX c #D8CBB0",
"BX c #E6C4B6",
"VX c #F6CAB7",
"CX c #EAC195",
"ZX c #93AECC",
"AX c #B7BBC5",
"SX c #BFCDD8",
"DX c #CFCCCE",
"FX c #F9D9C9",
"GX c #F3D3C8",
"HX c #FDEBDC",
"JX c #C4D4E3",
/* pixels */
"            O O O + $ % 5 5 5 8 5 7 % % . . . = * * * * + X X X                                     ",
"      O O   O   < $ $ % 4 5 5 8 C z 8 5 6 6 % $ * * * +     X X                                     ",
"        O         . $ % 8 l J h.f.f.C z z m l % 4 * + +     X X                                     ",
"            O     . % w m V D f.s.s.s.s.c Z C V 7 * + :   X X X                                     ",
"                  . 9 A l.D.D.D.c.d.u.u.y.u.c Z 5 * O O @ X                                         ",
"O   O O O           = P A.kXlXlXgXG.y.u.i.u.u.c 5 .   @ @                                           ",
"                o . o A m.Y.Y.B.gXgXG.a.i.i.y.x 4 .   @ @ @ O .                                     ",
"  O O       X   X . ; ! U.fXP.h.z.fXgXk.u.i.p.v 4   X X @ O + +                                     ",
"O O   O O     X X   ! r Q P.T R T j f./.i.a.v x %   X X X + < * .                                   ",
"          X     - . U ;.r 0 b Y.NX~ N.Q.'.H.H.g.6 . - 1 X @ * $ .                                   ",
"      O       X     r R.#.m.Y.MXT.~ T.P.).!.`.W.b . X X   + * *                                     ",
"  O     O       X ; & q.U.Y.M.P Y J.kX(.W.!.~.(.W.m.#.I ; . . +                                     ",
"+       O         X . ;.HXI.A.wXR.MXT.T.~.~.E.L.(.lXkXb.6 +                                         ",
".         O     X 2   ; eXV.rXdXNXkXY.j._.Q._.!.W.W.M.0 .   2                                       ",
"  .         O O   @   . +.bXGXwXx.^.h.L Q.L.E._.)./.B.B $ X X X                                     ",
"          O     s   . q $ n S 4 [ ^.B j.P.Q.g.j.h.^.VXzX! - X -                                     ",
"  -     2   ; V.DX#.. . = $ $ 5 sXx.G nXdXmXI.D B l.l.Y.nXrXn & &   o #       #         .     .     ",
"  2       X I DXpX7XU % $ 6 % $ S.wXdXzXdXvXdX5 w w G $.E U.U.0 .   .     ; @     O         .       ",
"  - o   X   d qXpXpX1.$ . $ 6 $ b.wXzXwXdXnXDXG % 8 n n T Y.sXv.9 9 = o . & o                       ",
"  X   X 2     ; q.7XtXpXxXvXvXbXGXbXcXcXBXnXVXjX% % 4 m ! T B T Q v.$.r $ .   .                     ",
"2       o         & S R.tXpXxXNXxXn.n.NXFXFXBXFX$.4 l m.B b L b N.m.m.v.A . . &                     ",
"            . . ; &   . & q S U r 9 A wXGXHXBXBXjXz.$.l.W W v.R h.L R v.Q 0 $ . .                   ",
"    - #       .   . . . . . . $ 9 b n.m.mXFXjXdXzXsXH j h.h.B g.N k N R T r $ .             O O     ",
"@         o 2   o .   & . . . = $ 9 b.A I.wXjXjXnXS.H H G H D k k N M k 0 7 $ . .       O           ",
"                .     . . o . . $ 5 E [ F.zXzXdXS.z.J [ [ [ Z F F h.M.l.$.E =.&.&     ,   O @ O     ",
"                    .         . % 4 S [ [ @.@.<X[ [ [ [ J V [ z.m.m.M.z.*.V.eXpXqX)   O O @         ",
"O O                           . . $ u [ %.' ' V ' ] f ] %.%.[ %.F.*.*.*.1.9.<X8XaXaXr.2     2       ",
"      O                 .     & q + , f ] f XX;X2.] ] ] 2.2.<.O.1.1.9.2.q.w.w.3.6.AXJX3.i   -       ",
"O   O           o     X o       : : , ,X,X/ XX,X>.XX+X+XXX....>.;XXX,.<.<.+X*X3X:.*XiXyX8XX         ",
"  O       O     #       X     O : { 4XZX,XXX@XX.[.@X$X|.@X|.{.oXXXXX>.<.X.>.+X5X*X*XiXyXaXs         ",
"O     O O       o     X       i OX4XZX|._ :X6X|.:X.X}.}..X2X.X}.@X>X>X#XXX#X#X-X5XZXJX0XiXs - o     ",
"O O O     O           #     e } ZX].|.@X$X:X].:X|..X2X2X}.}. X.X|.@X@X{.[.XX%X5XZXiXAXyXAXq   .     ",
"  + O   X X   #   . $ 3   O r.*X].}. X|.oX&XOX4. ...o.&X&X{.{.o.{.|.&XoXXX..<.<.yXAXDX9Xg     o     ",
"  # @   X       = q < . 3 ,.7.5.X..X2X{.oX%X:.p O 1 (  .+X%X&X&XoX&XOX5.{ p , : ) O.&.` q     .     ",
"  @       X   - < O.9.d ] r.( 5.]..X$X&XOX5.^ : O O @ a ^  .OX%X%XoX ./ y : : O : + +         o     ",
"+ +     - e h I q &.9XC.t.3.| :.oX{.{.2X4.p O O >   O O , a ^ { { ^ a > : : : , + O       X X .     ",
"      @ K -.-.q.%.+.` 9.=X8XuX .oXo.o.o.( : O >   O : > , > : : @ @ : O > O O O @ O                 ",
"  O   i 8.3Xt.q.7X9.d u ` 0XSX} ..&X5.p : O O O       O O O : : @   X   O             X             ",
"+ O   i -.K.0.q.C.7X1.d f =XyX4...4.} , O > 2   @       O O > 1 1 -         X         X   X X X     ",
"+     1 | 8.0.K.9.C.C.O.e.0X4.3X7. .p > O O       .   o O             X X o                         ",
"+ # @   - +.0.8.C.7X9.e.9Xw.} *X3X| : O O @                                 X           X           ",
"+ @     X h 3.R.9.9XC.e.9X;Xw.0X6.h     +       .               .     .               X     X       ",
"# O       X g t.9.9X1XC.9X8Xr.r.g 2                               .                                 ",
"+     -       g V.1X1X1XyX3X| p 1                               .             X X                   ",
"    O X X       ` %.C.9X<X) > @                                                             .       ",
"  + O     X X   $ q &.<XO.: O >       .                           +     O                 . . .     ",
"O +       - #   . . d ` 3 O : >             O     O   O O       + O + O O   O             . . .     ",
"      @ X       . . . + O > , @   .           O                 O   O O   O   O           . . .     ",
"                                                                                                    ",
"                                                                                                    "
};
